<?xml version="1.0" encoding="utf-8" standalone="no"?>
<!DOCTYPE svg PUBLIC "-//W3C//DTD SVG 1.1//EN"
  "http://www.w3.org/Graphics/SVG/1.1/DTD/svg11.dtd">
<svg xmlns:xlink="http://www.w3.org/1999/xlink" width="432pt" height="302.4pt" viewBox="0 0 432 302.4" xmlns="http://www.w3.org/2000/svg" version="1.1">
 <metadata>
  <rdf:RDF xmlns:dc="http://purl.org/dc/elements/1.1/" xmlns:cc="http://creativecommons.org/ns#" xmlns:rdf="http://www.w3.org/1999/02/22-rdf-syntax-ns#">
   <cc:Work>
    <dc:type rdf:resource="http://purl.org/dc/dcmitype/StillImage"/>
    <dc:date>2024-11-04T16:03:44.927769</dc:date>
    <dc:format>image/svg+xml</dc:format>
    <dc:creator>
     <cc:Agent>
      <dc:title>Matplotlib v3.9.2, https://matplotlib.org/</dc:title>
     </cc:Agent>
    </dc:creator>
   </cc:Work>
  </rdf:RDF>
 </metadata>
 <defs>
  <style type="text/css">*{stroke-linejoin: round; stroke-linecap: butt}</style>
 </defs>
 <g id="figure_1">
  <g id="patch_1">
   <path d="M 0 302.4 
L 432 302.4 
L 432 0 
L 0 0 
L 0 302.4 
z
" style="fill: none"/>
  </g>
  <g id="axes_1">
   <g id="patch_2">
    <path d="M 47.675 124.7 
L 285.496833 124.7 
L 285.496833 25.8 
L 47.675 25.8 
z
" style="fill: #ffffff"/>
   </g>
   <g id="line2d_1">
    <path d="M 47.675 124.7 
L 47.675 25.8 
" clip-path="url(#p7a672c3067)" style="fill: none; stroke-dasharray: 0.6,0.99; stroke-dashoffset: 0; stroke: #44525c; stroke-width: 0.6"/>
   </g>
   <g id="line2d_2">
    <path d="M 82.964691 124.7 
L 82.964691 25.8 
" clip-path="url(#p7a672c3067)" style="fill: none; stroke-dasharray: 0.6,0.99; stroke-dashoffset: 0; stroke: #44525c; stroke-width: 0.6"/>
   </g>
   <g id="line2d_3">
    <path d="M 101.376704 124.7 
L 101.376704 25.8 
" clip-path="url(#p7a672c3067)" style="fill: none; stroke-dasharray: 0.6,0.99; stroke-dashoffset: 0; stroke: #44525c; stroke-width: 0.6"/>
   </g>
   <g id="line2d_4">
    <path d="M 147.406737 124.7 
L 147.406737 25.8 
" clip-path="url(#p7a672c3067)" style="fill: none; stroke-dasharray: 0.6,0.99; stroke-dashoffset: 0; stroke: #44525c; stroke-width: 0.6"/>
   </g>
   <g id="line2d_5">
    <path d="M 201.108441 124.7 
L 201.108441 25.8 
" clip-path="url(#p7a672c3067)" style="fill: none; stroke-dasharray: 0.6,0.99; stroke-dashoffset: 0; stroke: #44525c; stroke-width: 0.6"/>
   </g>
   <g id="line2d_6">
    <path d="M 239.466801 124.7 
L 239.466801 25.8 
" clip-path="url(#p7a672c3067)" style="fill: none; stroke-dasharray: 0.6,0.99; stroke-dashoffset: 0; stroke: #44525c; stroke-width: 0.6"/>
   </g>
   <g id="line2d_7">
    <path d="M 285.496833 124.7 
L 285.496833 25.8 
" clip-path="url(#p7a672c3067)" style="fill: none; stroke-dasharray: 0.6,0.99; stroke-dashoffset: 0; stroke: #44525c; stroke-width: 0.6"/>
   </g>
   <g id="line2d_8">
    <path d="M 201.108441 124.7 
L 201.108441 25.8 
" clip-path="url(#p7a672c3067)" style="fill: none; stroke: #44525c; stroke-width: 0.6; stroke-linecap: square"/>
   </g>
   <g id="matplotlib.axis_1"/>
   <g id="matplotlib.axis_2">
    <g id="ytick_1">
     <g id="line2d_9">
      <defs>
       <path id="m59bffc2d62" d="M 0 0 
L -3.5 0 
" style="stroke: #000000; stroke-width: 0.8"/>
      </defs>
      <g>
       <use xlink:href="#m59bffc2d62" x="47.675" y="124.7" style="stroke: #000000; stroke-width: 0.8"/>
      </g>
     </g>
     <g id="text_1">
      <!-- 0 -->
      <g transform="translate(34.3125 128.499219) scale(0.1 -0.1)">
       <defs>
        <path id="DejaVuSans-30" d="M 2034 4250 
Q 1547 4250 1301 3770 
Q 1056 3291 1056 2328 
Q 1056 1369 1301 889 
Q 1547 409 2034 409 
Q 2525 409 2770 889 
Q 3016 1369 3016 2328 
Q 3016 3291 2770 3770 
Q 2525 4250 2034 4250 
z
M 2034 4750 
Q 2819 4750 3233 4129 
Q 3647 3509 3647 2328 
Q 3647 1150 3233 529 
Q 2819 -91 2034 -91 
Q 1250 -91 836 529 
Q 422 1150 422 2328 
Q 422 3509 836 4129 
Q 1250 4750 2034 4750 
z
" transform="scale(0.015625)"/>
       </defs>
       <use xlink:href="#DejaVuSans-30"/>
      </g>
     </g>
    </g>
    <g id="ytick_2">
     <g id="line2d_10">
      <g>
       <use xlink:href="#m59bffc2d62" x="47.675" y="25.8" style="stroke: #000000; stroke-width: 0.8"/>
      </g>
     </g>
     <g id="text_2">
      <!-- 20 -->
      <g transform="translate(27.95 29.599219) scale(0.1 -0.1)">
       <defs>
        <path id="DejaVuSans-32" d="M 1228 531 
L 3431 531 
L 3431 0 
L 469 0 
L 469 531 
Q 828 903 1448 1529 
Q 2069 2156 2228 2338 
Q 2531 2678 2651 2914 
Q 2772 3150 2772 3378 
Q 2772 3750 2511 3984 
Q 2250 4219 1831 4219 
Q 1534 4219 1204 4116 
Q 875 4013 500 3803 
L 500 4441 
Q 881 4594 1212 4672 
Q 1544 4750 1819 4750 
Q 2544 4750 2975 4387 
Q 3406 4025 3406 3419 
Q 3406 3131 3298 2873 
Q 3191 2616 2906 2266 
Q 2828 2175 2409 1742 
Q 1991 1309 1228 531 
z
" transform="scale(0.015625)"/>
       </defs>
       <use xlink:href="#DejaVuSans-32"/>
       <use xlink:href="#DejaVuSans-30" x="63.623047"/>
      </g>
     </g>
    </g>
    <g id="text_3">
     <!-- Time Constant $\tau$ (ms) -->
     <g transform="translate(21.870313 129.3) rotate(-90) scale(0.1 -0.1)">
      <defs>
       <path id="DejaVuSans-54" d="M -19 4666 
L 3928 4666 
L 3928 4134 
L 2272 4134 
L 2272 0 
L 1638 0 
L 1638 4134 
L -19 4134 
L -19 4666 
z
" transform="scale(0.015625)"/>
       <path id="DejaVuSans-69" d="M 603 3500 
L 1178 3500 
L 1178 0 
L 603 0 
L 603 3500 
z
M 603 4863 
L 1178 4863 
L 1178 4134 
L 603 4134 
L 603 4863 
z
" transform="scale(0.015625)"/>
       <path id="DejaVuSans-6d" d="M 3328 2828 
Q 3544 3216 3844 3400 
Q 4144 3584 4550 3584 
Q 5097 3584 5394 3201 
Q 5691 2819 5691 2113 
L 5691 0 
L 5113 0 
L 5113 2094 
Q 5113 2597 4934 2840 
Q 4756 3084 4391 3084 
Q 3944 3084 3684 2787 
Q 3425 2491 3425 1978 
L 3425 0 
L 2847 0 
L 2847 2094 
Q 2847 2600 2669 2842 
Q 2491 3084 2119 3084 
Q 1678 3084 1418 2786 
Q 1159 2488 1159 1978 
L 1159 0 
L 581 0 
L 581 3500 
L 1159 3500 
L 1159 2956 
Q 1356 3278 1631 3431 
Q 1906 3584 2284 3584 
Q 2666 3584 2933 3390 
Q 3200 3197 3328 2828 
z
" transform="scale(0.015625)"/>
       <path id="DejaVuSans-65" d="M 3597 1894 
L 3597 1613 
L 953 1613 
Q 991 1019 1311 708 
Q 1631 397 2203 397 
Q 2534 397 2845 478 
Q 3156 559 3463 722 
L 3463 178 
Q 3153 47 2828 -22 
Q 2503 -91 2169 -91 
Q 1331 -91 842 396 
Q 353 884 353 1716 
Q 353 2575 817 3079 
Q 1281 3584 2069 3584 
Q 2775 3584 3186 3129 
Q 3597 2675 3597 1894 
z
M 3022 2063 
Q 3016 2534 2758 2815 
Q 2500 3097 2075 3097 
Q 1594 3097 1305 2825 
Q 1016 2553 972 2059 
L 3022 2063 
z
" transform="scale(0.015625)"/>
       <path id="DejaVuSans-20" transform="scale(0.015625)"/>
       <path id="DejaVuSans-43" d="M 4122 4306 
L 4122 3641 
Q 3803 3938 3442 4084 
Q 3081 4231 2675 4231 
Q 1875 4231 1450 3742 
Q 1025 3253 1025 2328 
Q 1025 1406 1450 917 
Q 1875 428 2675 428 
Q 3081 428 3442 575 
Q 3803 722 4122 1019 
L 4122 359 
Q 3791 134 3420 21 
Q 3050 -91 2638 -91 
Q 1578 -91 968 557 
Q 359 1206 359 2328 
Q 359 3453 968 4101 
Q 1578 4750 2638 4750 
Q 3056 4750 3426 4639 
Q 3797 4528 4122 4306 
z
" transform="scale(0.015625)"/>
       <path id="DejaVuSans-6f" d="M 1959 3097 
Q 1497 3097 1228 2736 
Q 959 2375 959 1747 
Q 959 1119 1226 758 
Q 1494 397 1959 397 
Q 2419 397 2687 759 
Q 2956 1122 2956 1747 
Q 2956 2369 2687 2733 
Q 2419 3097 1959 3097 
z
M 1959 3584 
Q 2709 3584 3137 3096 
Q 3566 2609 3566 1747 
Q 3566 888 3137 398 
Q 2709 -91 1959 -91 
Q 1206 -91 779 398 
Q 353 888 353 1747 
Q 353 2609 779 3096 
Q 1206 3584 1959 3584 
z
" transform="scale(0.015625)"/>
       <path id="DejaVuSans-6e" d="M 3513 2113 
L 3513 0 
L 2938 0 
L 2938 2094 
Q 2938 2591 2744 2837 
Q 2550 3084 2163 3084 
Q 1697 3084 1428 2787 
Q 1159 2491 1159 1978 
L 1159 0 
L 581 0 
L 581 3500 
L 1159 3500 
L 1159 2956 
Q 1366 3272 1645 3428 
Q 1925 3584 2291 3584 
Q 2894 3584 3203 3211 
Q 3513 2838 3513 2113 
z
" transform="scale(0.015625)"/>
       <path id="DejaVuSans-73" d="M 2834 3397 
L 2834 2853 
Q 2591 2978 2328 3040 
Q 2066 3103 1784 3103 
Q 1356 3103 1142 2972 
Q 928 2841 928 2578 
Q 928 2378 1081 2264 
Q 1234 2150 1697 2047 
L 1894 2003 
Q 2506 1872 2764 1633 
Q 3022 1394 3022 966 
Q 3022 478 2636 193 
Q 2250 -91 1575 -91 
Q 1294 -91 989 -36 
Q 684 19 347 128 
L 347 722 
Q 666 556 975 473 
Q 1284 391 1588 391 
Q 1994 391 2212 530 
Q 2431 669 2431 922 
Q 2431 1156 2273 1281 
Q 2116 1406 1581 1522 
L 1381 1569 
Q 847 1681 609 1914 
Q 372 2147 372 2553 
Q 372 3047 722 3315 
Q 1072 3584 1716 3584 
Q 2034 3584 2315 3537 
Q 2597 3491 2834 3397 
z
" transform="scale(0.015625)"/>
       <path id="DejaVuSans-74" d="M 1172 4494 
L 1172 3500 
L 2356 3500 
L 2356 3053 
L 1172 3053 
L 1172 1153 
Q 1172 725 1289 603 
Q 1406 481 1766 481 
L 2356 481 
L 2356 0 
L 1766 0 
Q 1100 0 847 248 
Q 594 497 594 1153 
L 594 3053 
L 172 3053 
L 172 3500 
L 594 3500 
L 594 4494 
L 1172 4494 
z
" transform="scale(0.015625)"/>
       <path id="DejaVuSans-61" d="M 2194 1759 
Q 1497 1759 1228 1600 
Q 959 1441 959 1056 
Q 959 750 1161 570 
Q 1363 391 1709 391 
Q 2188 391 2477 730 
Q 2766 1069 2766 1631 
L 2766 1759 
L 2194 1759 
z
M 3341 1997 
L 3341 0 
L 2766 0 
L 2766 531 
Q 2569 213 2275 61 
Q 1981 -91 1556 -91 
Q 1019 -91 701 211 
Q 384 513 384 1019 
Q 384 1609 779 1909 
Q 1175 2209 1959 2209 
L 2766 2209 
L 2766 2266 
Q 2766 2663 2505 2880 
Q 2244 3097 1772 3097 
Q 1472 3097 1187 3025 
Q 903 2953 641 2809 
L 641 3341 
Q 956 3463 1253 3523 
Q 1550 3584 1831 3584 
Q 2591 3584 2966 3190 
Q 3341 2797 3341 1997 
z
" transform="scale(0.015625)"/>
       <path id="DejaVuSans-Oblique-3c4" d="M 2103 638 
Q 2188 488 2525 488 
L 2800 488 
L 2706 0 
L 2363 0 
Q 1800 0 1600 300 
Q 1403 606 1534 1269 
L 1856 2925 
L 541 2925 
L 653 3500 
L 3881 3500 
L 3769 2925 
L 2444 2925 
L 2113 1234 
Q 2025 781 2103 638 
z
" transform="scale(0.015625)"/>
       <path id="DejaVuSans-28" d="M 1984 4856 
Q 1566 4138 1362 3434 
Q 1159 2731 1159 2009 
Q 1159 1288 1364 580 
Q 1569 -128 1984 -844 
L 1484 -844 
Q 1016 -109 783 600 
Q 550 1309 550 2009 
Q 550 2706 781 3412 
Q 1013 4119 1484 4856 
L 1984 4856 
z
" transform="scale(0.015625)"/>
       <path id="DejaVuSans-29" d="M 513 4856 
L 1013 4856 
Q 1481 4119 1714 3412 
Q 1947 2706 1947 2009 
Q 1947 1309 1714 600 
Q 1481 -109 1013 -844 
L 513 -844 
Q 928 -128 1133 580 
Q 1338 1288 1338 2009 
Q 1338 2731 1133 3434 
Q 928 4138 513 4856 
z
" transform="scale(0.015625)"/>
      </defs>
      <use xlink:href="#DejaVuSans-54" transform="translate(0 0.015625)"/>
      <use xlink:href="#DejaVuSans-69" transform="translate(61.083984 0.015625)"/>
      <use xlink:href="#DejaVuSans-6d" transform="translate(88.867188 0.015625)"/>
      <use xlink:href="#DejaVuSans-65" transform="translate(186.279297 0.015625)"/>
      <use xlink:href="#DejaVuSans-20" transform="translate(247.802734 0.015625)"/>
      <use xlink:href="#DejaVuSans-43" transform="translate(279.589844 0.015625)"/>
      <use xlink:href="#DejaVuSans-6f" transform="translate(349.414062 0.015625)"/>
      <use xlink:href="#DejaVuSans-6e" transform="translate(410.595703 0.015625)"/>
      <use xlink:href="#DejaVuSans-73" transform="translate(473.974609 0.015625)"/>
      <use xlink:href="#DejaVuSans-74" transform="translate(526.074219 0.015625)"/>
      <use xlink:href="#DejaVuSans-61" transform="translate(565.283203 0.015625)"/>
      <use xlink:href="#DejaVuSans-6e" transform="translate(626.5625 0.015625)"/>
      <use xlink:href="#DejaVuSans-74" transform="translate(689.941406 0.015625)"/>
      <use xlink:href="#DejaVuSans-20" transform="translate(729.150391 0.015625)"/>
      <use xlink:href="#DejaVuSans-Oblique-3c4" transform="translate(760.9375 0.015625)"/>
      <use xlink:href="#DejaVuSans-20" transform="translate(821.142578 0.015625)"/>
      <use xlink:href="#DejaVuSans-28" transform="translate(852.929688 0.015625)"/>
      <use xlink:href="#DejaVuSans-6d" transform="translate(891.943359 0.015625)"/>
      <use xlink:href="#DejaVuSans-73" transform="translate(989.355469 0.015625)"/>
      <use xlink:href="#DejaVuSans-29" transform="translate(1041.455078 0.015625)"/>
     </g>
    </g>
   </g>
   <g id="line2d_11">
    <path d="M 47.675 116.118888 
L 50.528862 114.686649 
L 53.382724 113.018087 
L 56.236586 111.075815 
L 58.614804 109.217767 
L 60.993023 107.113121 
L 63.371241 104.732332 
L 65.749459 102.043817 
L 68.127678 99.014578 
L 70.505896 95.611269 
L 72.884114 91.801921 
L 75.262333 87.558552 
L 77.640551 82.860943 
L 80.018769 77.701881 
L 82.872631 70.921702 
L 86.202137 62.30536 
L 91.909861 46.635615 
L 95.239367 37.902866 
L 97.141941 33.429552 
L 99.044516 29.542332 
L 100.471447 27.111549 
L 101.898378 25.167122 
L 102.849665 24.167953 
L 103.800953 23.42168 
L 104.75224 22.937985 
L 105.703527 22.723236 
L 106.654815 22.780284 
L 107.606102 23.10837 
L 108.557389 23.70315 
L 109.508677 24.556837 
L 110.459964 25.658441 
L 111.886895 27.744713 
L 113.313826 30.300474 
L 115.216401 34.324638 
L 117.118975 38.899223 
L 119.972837 46.426415 
L 128.534423 69.540271 
L 131.388285 76.438453 
L 134.242147 82.701717 
L 136.620366 87.414186 
L 138.998584 91.671947 
L 141.376802 95.494889 
L 143.755021 98.91081 
L 146.133239 101.951598 
L 148.511457 104.650583 
L 150.889676 107.040796 
L 153.267894 109.153877 
L 156.121756 111.365296 
L 158.975618 113.266877 
L 161.82948 114.900267 
L 164.683342 116.302181 
L 168.012848 117.687782 
L 171.342353 118.84568 
L 175.147503 119.937406 
L 179.428296 120.924642 
L 184.184732 121.783745 
L 189.416813 122.504912 
L 195.60018 123.130989 
L 203.210479 123.662156 
L 212.723352 124.08091 
L 225.090088 124.383732 
L 243.164547 124.581498 
L 251.726133 124.529012 
L 269.324949 124.255288 
L 280.740397 123.873313 
L 285.496833 123.62963 
L 285.496833 123.62963 
" style="fill: none; stroke: #44525c; stroke-width: 1.5"/>
   </g>
   <g id="line2d_12">
    <path d="M 47.675 104.920202 
L 61.468666 103.387774 
L 73.835402 101.797434 
L 85.25085 100.104278 
L 95.239367 98.405228 
L 104.276596 96.655765 
L 112.838182 94.775473 
L 120.448481 92.888793 
L 127.583136 90.905599 
L 134.242147 88.840805 
L 140.901159 86.545245 
L 147.084526 84.1901 
L 153.743538 81.406403 
L 160.878193 78.161853 
L 179.903939 69.281284 
L 183.709089 67.882647 
L 186.562951 67.048757 
L 189.416813 66.454511 
L 191.795031 66.178934 
L 194.173249 66.1327 
L 196.551468 66.34011 
L 198.929686 66.820013 
L 201.307904 67.583875 
L 203.686123 68.634179 
L 206.064341 69.963422 
L 208.442559 71.553913 
L 211.296421 73.768496 
L 214.625927 76.694758 
L 218.90672 80.819812 
L 230.797812 92.508173 
L 234.602961 95.868329 
L 238.40811 98.929621 
L 242.21326 101.674539 
L 245.542765 103.819527 
L 249.347915 105.992826 
L 253.153064 107.893344 
L 256.958213 109.549479 
L 261.239006 111.156593 
L 265.519799 112.530353 
L 270.276236 113.826102 
L 275.508316 115.019437 
L 281.21604 116.097079 
L 285.496833 116.780598 
L 285.496833 116.780598 
" style="fill: none; stroke: #eb7a59; stroke-width: 1.5"/>
   </g>
   <g id="line2d_13">
    <path d="M 47.675 124.087581 
L 84.299562 123.754827 
L 110.935608 123.289461 
L 136.144722 122.863159 
L 148.035814 122.912457 
L 163.732055 123.235287 
L 192.746318 123.837063 
L 219.382364 124.126086 
L 261.71465 124.335453 
L 285.496833 124.39813 
L 285.496833 124.39813 
" style="fill: none; stroke: #00bac9; stroke-width: 1.5"/>
   </g>
   <g id="patch_3">
    <path d="M 47.675 124.7 
L 47.675 25.8 
" style="fill: none; stroke: #000000; stroke-width: 0.8; stroke-linejoin: miter; stroke-linecap: square"/>
   </g>
   <g id="text_4">
    <!-- Voltage-dependent gating variables -->
    <g transform="translate(47.675 19.8) scale(0.12 -0.12)">
     <defs>
      <path id="DejaVuSans-56" d="M 1831 0 
L 50 4666 
L 709 4666 
L 2188 738 
L 3669 4666 
L 4325 4666 
L 2547 0 
L 1831 0 
z
" transform="scale(0.015625)"/>
      <path id="DejaVuSans-6c" d="M 603 4863 
L 1178 4863 
L 1178 0 
L 603 0 
L 603 4863 
z
" transform="scale(0.015625)"/>
      <path id="DejaVuSans-67" d="M 2906 1791 
Q 2906 2416 2648 2759 
Q 2391 3103 1925 3103 
Q 1463 3103 1205 2759 
Q 947 2416 947 1791 
Q 947 1169 1205 825 
Q 1463 481 1925 481 
Q 2391 481 2648 825 
Q 2906 1169 2906 1791 
z
M 3481 434 
Q 3481 -459 3084 -895 
Q 2688 -1331 1869 -1331 
Q 1566 -1331 1297 -1286 
Q 1028 -1241 775 -1147 
L 775 -588 
Q 1028 -725 1275 -790 
Q 1522 -856 1778 -856 
Q 2344 -856 2625 -561 
Q 2906 -266 2906 331 
L 2906 616 
Q 2728 306 2450 153 
Q 2172 0 1784 0 
Q 1141 0 747 490 
Q 353 981 353 1791 
Q 353 2603 747 3093 
Q 1141 3584 1784 3584 
Q 2172 3584 2450 3431 
Q 2728 3278 2906 2969 
L 2906 3500 
L 3481 3500 
L 3481 434 
z
" transform="scale(0.015625)"/>
      <path id="DejaVuSans-2d" d="M 313 2009 
L 1997 2009 
L 1997 1497 
L 313 1497 
L 313 2009 
z
" transform="scale(0.015625)"/>
      <path id="DejaVuSans-64" d="M 2906 2969 
L 2906 4863 
L 3481 4863 
L 3481 0 
L 2906 0 
L 2906 525 
Q 2725 213 2448 61 
Q 2172 -91 1784 -91 
Q 1150 -91 751 415 
Q 353 922 353 1747 
Q 353 2572 751 3078 
Q 1150 3584 1784 3584 
Q 2172 3584 2448 3432 
Q 2725 3281 2906 2969 
z
M 947 1747 
Q 947 1113 1208 752 
Q 1469 391 1925 391 
Q 2381 391 2643 752 
Q 2906 1113 2906 1747 
Q 2906 2381 2643 2742 
Q 2381 3103 1925 3103 
Q 1469 3103 1208 2742 
Q 947 2381 947 1747 
z
" transform="scale(0.015625)"/>
      <path id="DejaVuSans-70" d="M 1159 525 
L 1159 -1331 
L 581 -1331 
L 581 3500 
L 1159 3500 
L 1159 2969 
Q 1341 3281 1617 3432 
Q 1894 3584 2278 3584 
Q 2916 3584 3314 3078 
Q 3713 2572 3713 1747 
Q 3713 922 3314 415 
Q 2916 -91 2278 -91 
Q 1894 -91 1617 61 
Q 1341 213 1159 525 
z
M 3116 1747 
Q 3116 2381 2855 2742 
Q 2594 3103 2138 3103 
Q 1681 3103 1420 2742 
Q 1159 2381 1159 1747 
Q 1159 1113 1420 752 
Q 1681 391 2138 391 
Q 2594 391 2855 752 
Q 3116 1113 3116 1747 
z
" transform="scale(0.015625)"/>
      <path id="DejaVuSans-76" d="M 191 3500 
L 800 3500 
L 1894 563 
L 2988 3500 
L 3597 3500 
L 2284 0 
L 1503 0 
L 191 3500 
z
" transform="scale(0.015625)"/>
      <path id="DejaVuSans-72" d="M 2631 2963 
Q 2534 3019 2420 3045 
Q 2306 3072 2169 3072 
Q 1681 3072 1420 2755 
Q 1159 2438 1159 1844 
L 1159 0 
L 581 0 
L 581 3500 
L 1159 3500 
L 1159 2956 
Q 1341 3275 1631 3429 
Q 1922 3584 2338 3584 
Q 2397 3584 2469 3576 
Q 2541 3569 2628 3553 
L 2631 2963 
z
" transform="scale(0.015625)"/>
      <path id="DejaVuSans-62" d="M 3116 1747 
Q 3116 2381 2855 2742 
Q 2594 3103 2138 3103 
Q 1681 3103 1420 2742 
Q 1159 2381 1159 1747 
Q 1159 1113 1420 752 
Q 1681 391 2138 391 
Q 2594 391 2855 752 
Q 3116 1113 3116 1747 
z
M 1159 2969 
Q 1341 3281 1617 3432 
Q 1894 3584 2278 3584 
Q 2916 3584 3314 3078 
Q 3713 2572 3713 1747 
Q 3713 922 3314 415 
Q 2916 -91 2278 -91 
Q 1894 -91 1617 61 
Q 1341 213 1159 525 
L 1159 0 
L 581 0 
L 581 4863 
L 1159 4863 
L 1159 2969 
z
" transform="scale(0.015625)"/>
     </defs>
     <use xlink:href="#DejaVuSans-56"/>
     <use xlink:href="#DejaVuSans-6f" x="60.658203"/>
     <use xlink:href="#DejaVuSans-6c" x="121.839844"/>
     <use xlink:href="#DejaVuSans-74" x="149.623047"/>
     <use xlink:href="#DejaVuSans-61" x="188.832031"/>
     <use xlink:href="#DejaVuSans-67" x="250.111328"/>
     <use xlink:href="#DejaVuSans-65" x="313.587891"/>
     <use xlink:href="#DejaVuSans-2d" x="375.111328"/>
     <use xlink:href="#DejaVuSans-64" x="411.195312"/>
     <use xlink:href="#DejaVuSans-65" x="474.671875"/>
     <use xlink:href="#DejaVuSans-70" x="536.195312"/>
     <use xlink:href="#DejaVuSans-65" x="599.671875"/>
     <use xlink:href="#DejaVuSans-6e" x="661.195312"/>
     <use xlink:href="#DejaVuSans-64" x="724.574219"/>
     <use xlink:href="#DejaVuSans-65" x="788.050781"/>
     <use xlink:href="#DejaVuSans-6e" x="849.574219"/>
     <use xlink:href="#DejaVuSans-74" x="912.953125"/>
     <use xlink:href="#DejaVuSans-20" x="952.162109"/>
     <use xlink:href="#DejaVuSans-67" x="983.949219"/>
     <use xlink:href="#DejaVuSans-61" x="1047.425781"/>
     <use xlink:href="#DejaVuSans-74" x="1108.705078"/>
     <use xlink:href="#DejaVuSans-69" x="1147.914062"/>
     <use xlink:href="#DejaVuSans-6e" x="1175.697266"/>
     <use xlink:href="#DejaVuSans-67" x="1239.076172"/>
     <use xlink:href="#DejaVuSans-20" x="1302.552734"/>
     <use xlink:href="#DejaVuSans-76" x="1334.339844"/>
     <use xlink:href="#DejaVuSans-61" x="1393.519531"/>
     <use xlink:href="#DejaVuSans-72" x="1454.798828"/>
     <use xlink:href="#DejaVuSans-69" x="1495.912109"/>
     <use xlink:href="#DejaVuSans-61" x="1523.695312"/>
     <use xlink:href="#DejaVuSans-62" x="1584.974609"/>
     <use xlink:href="#DejaVuSans-6c" x="1648.451172"/>
     <use xlink:href="#DejaVuSans-65" x="1676.234375"/>
     <use xlink:href="#DejaVuSans-73" x="1737.757812"/>
    </g>
   </g>
   <g id="legend_1">
    <g id="patch_4">
     <path d="M 292.496833 99.489062 
L 419.096833 99.489062 
Q 421.096833 99.489062 421.096833 97.489062 
L 421.096833 53.010938 
Q 421.096833 51.010938 419.096833 51.010938 
L 292.496833 51.010938 
Q 290.496833 51.010938 290.496833 53.010938 
L 290.496833 97.489062 
Q 290.496833 99.489062 292.496833 99.489062 
z
" style="fill: #ffffff; opacity: 0.8"/>
    </g>
    <g id="line2d_14">
     <path d="M 294.496833 59.109375 
L 304.496833 59.109375 
L 314.496833 59.109375 
" style="fill: none; stroke: #44525c; stroke-width: 1.5"/>
    </g>
    <g id="text_5">
     <!-- $h$: Na${}^{+}$ inactivation -->
     <g transform="translate(322.496833 62.609375) scale(0.1 -0.1)">
      <defs>
       <path id="DejaVuSans-Oblique-68" d="M 3566 2113 
L 3156 0 
L 2578 0 
L 2988 2091 
Q 3016 2238 3031 2350 
Q 3047 2463 3047 2528 
Q 3047 2791 2881 2937 
Q 2716 3084 2419 3084 
Q 1956 3084 1617 2771 
Q 1278 2459 1178 1941 
L 800 0 
L 225 0 
L 1172 4863 
L 1747 4863 
L 1375 2950 
Q 1594 3244 1934 3414 
Q 2275 3584 2650 3584 
Q 3113 3584 3367 3334 
Q 3622 3084 3622 2631 
Q 3622 2519 3608 2391 
Q 3594 2263 3566 2113 
z
" transform="scale(0.015625)"/>
       <path id="DejaVuSans-3a" d="M 750 794 
L 1409 794 
L 1409 0 
L 750 0 
L 750 794 
z
M 750 3309 
L 1409 3309 
L 1409 2516 
L 750 2516 
L 750 3309 
z
" transform="scale(0.015625)"/>
       <path id="DejaVuSans-4e" d="M 628 4666 
L 1478 4666 
L 3547 763 
L 3547 4666 
L 4159 4666 
L 4159 0 
L 3309 0 
L 1241 3903 
L 1241 0 
L 628 0 
L 628 4666 
z
" transform="scale(0.015625)"/>
       <path id="DejaVuSans-2b" d="M 2944 4013 
L 2944 2272 
L 4684 2272 
L 4684 1741 
L 2944 1741 
L 2944 0 
L 2419 0 
L 2419 1741 
L 678 1741 
L 678 2272 
L 2419 2272 
L 2419 4013 
L 2944 4013 
z
" transform="scale(0.015625)"/>
       <path id="DejaVuSans-63" d="M 3122 3366 
L 3122 2828 
Q 2878 2963 2633 3030 
Q 2388 3097 2138 3097 
Q 1578 3097 1268 2742 
Q 959 2388 959 1747 
Q 959 1106 1268 751 
Q 1578 397 2138 397 
Q 2388 397 2633 464 
Q 2878 531 3122 666 
L 3122 134 
Q 2881 22 2623 -34 
Q 2366 -91 2075 -91 
Q 1284 -91 818 406 
Q 353 903 353 1747 
Q 353 2603 823 3093 
Q 1294 3584 2113 3584 
Q 2378 3584 2631 3529 
Q 2884 3475 3122 3366 
z
" transform="scale(0.015625)"/>
      </defs>
      <use xlink:href="#DejaVuSans-Oblique-68" transform="translate(0 0.826562)"/>
      <use xlink:href="#DejaVuSans-3a" transform="translate(63.378906 0.826562)"/>
      <use xlink:href="#DejaVuSans-20" transform="translate(97.070312 0.826562)"/>
      <use xlink:href="#DejaVuSans-4e" transform="translate(128.857422 0.826562)"/>
      <use xlink:href="#DejaVuSans-61" transform="translate(203.662109 0.826562)"/>
      <use xlink:href="#DejaVuSans-2b" transform="translate(265.898438 39.107812) scale(0.7)"/>
      <use xlink:href="#DejaVuSans-20" transform="translate(327.285156 0.826562)"/>
      <use xlink:href="#DejaVuSans-69" transform="translate(359.072266 0.826562)"/>
      <use xlink:href="#DejaVuSans-6e" transform="translate(386.855469 0.826562)"/>
      <use xlink:href="#DejaVuSans-61" transform="translate(450.234375 0.826562)"/>
      <use xlink:href="#DejaVuSans-63" transform="translate(511.513672 0.826562)"/>
      <use xlink:href="#DejaVuSans-74" transform="translate(566.494141 0.826562)"/>
      <use xlink:href="#DejaVuSans-69" transform="translate(605.703125 0.826562)"/>
      <use xlink:href="#DejaVuSans-76" transform="translate(633.486328 0.826562)"/>
      <use xlink:href="#DejaVuSans-61" transform="translate(692.666016 0.826562)"/>
      <use xlink:href="#DejaVuSans-74" transform="translate(753.945312 0.826562)"/>
      <use xlink:href="#DejaVuSans-69" transform="translate(793.154297 0.826562)"/>
      <use xlink:href="#DejaVuSans-6f" transform="translate(820.9375 0.826562)"/>
      <use xlink:href="#DejaVuSans-6e" transform="translate(882.119141 0.826562)"/>
     </g>
    </g>
    <g id="line2d_15">
     <path d="M 294.496833 74.489062 
L 304.496833 74.489062 
L 314.496833 74.489062 
" style="fill: none; stroke: #eb7a59; stroke-width: 1.5"/>
    </g>
    <g id="text_6">
     <!-- $n$: Na${}^{+}$ opening -->
     <g transform="translate(322.496833 77.989062) scale(0.1 -0.1)">
      <defs>
       <path id="DejaVuSans-Oblique-6e" d="M 3566 2113 
L 3156 0 
L 2578 0 
L 2988 2091 
Q 3016 2238 3031 2350 
Q 3047 2463 3047 2528 
Q 3047 2791 2881 2937 
Q 2716 3084 2419 3084 
Q 1956 3084 1622 2776 
Q 1288 2469 1184 1941 
L 800 0 
L 225 0 
L 903 3500 
L 1478 3500 
L 1363 2950 
Q 1603 3253 1940 3418 
Q 2278 3584 2650 3584 
Q 3113 3584 3367 3334 
Q 3622 3084 3622 2631 
Q 3622 2519 3608 2391 
Q 3594 2263 3566 2113 
z
" transform="scale(0.015625)"/>
      </defs>
      <use xlink:href="#DejaVuSans-Oblique-6e" transform="translate(0 0.826562)"/>
      <use xlink:href="#DejaVuSans-3a" transform="translate(63.378906 0.826562)"/>
      <use xlink:href="#DejaVuSans-20" transform="translate(97.070312 0.826562)"/>
      <use xlink:href="#DejaVuSans-4e" transform="translate(128.857422 0.826562)"/>
      <use xlink:href="#DejaVuSans-61" transform="translate(203.662109 0.826562)"/>
      <use xlink:href="#DejaVuSans-2b" transform="translate(265.898438 39.107812) scale(0.7)"/>
      <use xlink:href="#DejaVuSans-20" transform="translate(327.285156 0.826562)"/>
      <use xlink:href="#DejaVuSans-6f" transform="translate(359.072266 0.826562)"/>
      <use xlink:href="#DejaVuSans-70" transform="translate(420.253906 0.826562)"/>
      <use xlink:href="#DejaVuSans-65" transform="translate(483.730469 0.826562)"/>
      <use xlink:href="#DejaVuSans-6e" transform="translate(545.253906 0.826562)"/>
      <use xlink:href="#DejaVuSans-69" transform="translate(608.632812 0.826562)"/>
      <use xlink:href="#DejaVuSans-6e" transform="translate(636.416016 0.826562)"/>
      <use xlink:href="#DejaVuSans-67" transform="translate(699.794922 0.826562)"/>
     </g>
    </g>
    <g id="line2d_16">
     <path d="M 294.496833 89.889062 
L 304.496833 89.889062 
L 314.496833 89.889062 
" style="fill: none; stroke: #00bac9; stroke-width: 1.5"/>
    </g>
    <g id="text_7">
     <!-- $m$: K${}^{+}$ opening -->
     <g transform="translate(322.496833 93.389062) scale(0.1 -0.1)">
      <defs>
       <path id="DejaVuSans-Oblique-6d" d="M 5747 2113 
L 5338 0 
L 4763 0 
L 5166 2094 
Q 5191 2228 5203 2325 
Q 5216 2422 5216 2491 
Q 5216 2772 5059 2928 
Q 4903 3084 4622 3084 
Q 4203 3084 3875 2770 
Q 3547 2456 3450 1953 
L 3066 0 
L 2491 0 
L 2900 2094 
Q 2925 2209 2937 2307 
Q 2950 2406 2950 2484 
Q 2950 2769 2794 2926 
Q 2638 3084 2363 3084 
Q 1938 3084 1609 2770 
Q 1281 2456 1184 1953 
L 800 0 
L 225 0 
L 909 3500 
L 1484 3500 
L 1375 2956 
Q 1609 3263 1923 3423 
Q 2238 3584 2597 3584 
Q 2978 3584 3223 3384 
Q 3469 3184 3519 2828 
Q 3781 3197 4126 3390 
Q 4472 3584 4856 3584 
Q 5306 3584 5551 3325 
Q 5797 3066 5797 2591 
Q 5797 2488 5784 2364 
Q 5772 2241 5747 2113 
z
" transform="scale(0.015625)"/>
       <path id="DejaVuSans-4b" d="M 628 4666 
L 1259 4666 
L 1259 2694 
L 3353 4666 
L 4166 4666 
L 1850 2491 
L 4331 0 
L 3500 0 
L 1259 2247 
L 1259 0 
L 628 0 
L 628 4666 
z
" transform="scale(0.015625)"/>
      </defs>
      <use xlink:href="#DejaVuSans-Oblique-6d" transform="translate(0 0.826562)"/>
      <use xlink:href="#DejaVuSans-3a" transform="translate(97.412109 0.826562)"/>
      <use xlink:href="#DejaVuSans-20" transform="translate(131.103516 0.826562)"/>
      <use xlink:href="#DejaVuSans-4b" transform="translate(162.890625 0.826562)"/>
      <use xlink:href="#DejaVuSans-2b" transform="translate(229.423828 39.107812) scale(0.7)"/>
      <use xlink:href="#DejaVuSans-20" transform="translate(290.810547 0.826562)"/>
      <use xlink:href="#DejaVuSans-6f" transform="translate(322.597656 0.826562)"/>
      <use xlink:href="#DejaVuSans-70" transform="translate(383.779297 0.826562)"/>
      <use xlink:href="#DejaVuSans-65" transform="translate(447.255859 0.826562)"/>
      <use xlink:href="#DejaVuSans-6e" transform="translate(508.779297 0.826562)"/>
      <use xlink:href="#DejaVuSans-69" transform="translate(572.158203 0.826562)"/>
      <use xlink:href="#DejaVuSans-6e" transform="translate(599.941406 0.826562)"/>
      <use xlink:href="#DejaVuSans-67" transform="translate(663.320312 0.826562)"/>
     </g>
    </g>
   </g>
  </g>
  <g id="axes_2">
   <g id="patch_5">
    <path d="M 47.675 245.2 
L 285.496833 245.2 
L 285.496833 146.3 
L 47.675 146.3 
z
" style="fill: #ffffff"/>
   </g>
   <g id="line2d_17">
    <path d="M 47.675 245.2 
L 47.675 146.3 
" clip-path="url(#p83c59f8e7e)" style="fill: none; stroke-dasharray: 0.6,0.99; stroke-dashoffset: 0; stroke: #44525c; stroke-width: 0.6"/>
   </g>
   <g id="line2d_18">
    <path d="M 82.964691 245.2 
L 82.964691 146.3 
" clip-path="url(#p83c59f8e7e)" style="fill: none; stroke-dasharray: 0.6,0.99; stroke-dashoffset: 0; stroke: #44525c; stroke-width: 0.6"/>
   </g>
   <g id="line2d_19">
    <path d="M 101.376704 245.2 
L 101.376704 146.3 
" clip-path="url(#p83c59f8e7e)" style="fill: none; stroke-dasharray: 0.6,0.99; stroke-dashoffset: 0; stroke: #44525c; stroke-width: 0.6"/>
   </g>
   <g id="line2d_20">
    <path d="M 147.406737 245.2 
L 147.406737 146.3 
" clip-path="url(#p83c59f8e7e)" style="fill: none; stroke-dasharray: 0.6,0.99; stroke-dashoffset: 0; stroke: #44525c; stroke-width: 0.6"/>
   </g>
   <g id="line2d_21">
    <path d="M 201.108441 245.2 
L 201.108441 146.3 
" clip-path="url(#p83c59f8e7e)" style="fill: none; stroke-dasharray: 0.6,0.99; stroke-dashoffset: 0; stroke: #44525c; stroke-width: 0.6"/>
   </g>
   <g id="line2d_22">
    <path d="M 239.466801 245.2 
L 239.466801 146.3 
" clip-path="url(#p83c59f8e7e)" style="fill: none; stroke-dasharray: 0.6,0.99; stroke-dashoffset: 0; stroke: #44525c; stroke-width: 0.6"/>
   </g>
   <g id="line2d_23">
    <path d="M 285.496833 245.2 
L 285.496833 146.3 
" clip-path="url(#p83c59f8e7e)" style="fill: none; stroke-dasharray: 0.6,0.99; stroke-dashoffset: 0; stroke: #44525c; stroke-width: 0.6"/>
   </g>
   <g id="line2d_24">
    <path d="M 201.108441 245.2 
L 201.108441 146.3 
" clip-path="url(#p83c59f8e7e)" style="fill: none; stroke: #44525c; stroke-width: 0.6; stroke-linecap: square"/>
   </g>
   <g id="matplotlib.axis_3">
    <g id="xtick_1">
     <g id="line2d_25">
      <defs>
       <path id="m7ce2f29eb0" d="M 0 0 
L 0 3.5 
" style="stroke: #000000; stroke-width: 0.8"/>
      </defs>
      <g>
       <use xlink:href="#m7ce2f29eb0" x="47.675" y="245.2" style="stroke: #000000; stroke-width: 0.8"/>
      </g>
     </g>
     <g id="text_8">
      <!-- -100 -->
      <g transform="translate(36.327344 259.798438) scale(0.1 -0.1)">
       <defs>
        <path id="DejaVuSans-31" d="M 794 531 
L 1825 531 
L 1825 4091 
L 703 3866 
L 703 4441 
L 1819 4666 
L 2450 4666 
L 2450 531 
L 3481 531 
L 3481 0 
L 794 0 
L 794 531 
z
" transform="scale(0.015625)"/>
       </defs>
       <use xlink:href="#DejaVuSans-2d"/>
       <use xlink:href="#DejaVuSans-31" x="36.083984"/>
       <use xlink:href="#DejaVuSans-30" x="99.707031"/>
       <use xlink:href="#DejaVuSans-30" x="163.330078"/>
      </g>
     </g>
    </g>
    <g id="xtick_2">
     <g id="line2d_26">
      <g>
       <use xlink:href="#m7ce2f29eb0" x="82.964691" y="245.2" style="stroke: #000000; stroke-width: 0.8"/>
      </g>
     </g>
     <g id="text_9">
      <!-- -77 -->
      <g transform="translate(74.798285 259.798438) scale(0.1 -0.1)">
       <defs>
        <path id="DejaVuSans-37" d="M 525 4666 
L 3525 4666 
L 3525 4397 
L 1831 0 
L 1172 0 
L 2766 4134 
L 525 4134 
L 525 4666 
z
" transform="scale(0.015625)"/>
       </defs>
       <use xlink:href="#DejaVuSans-2d"/>
       <use xlink:href="#DejaVuSans-37" x="36.083984"/>
       <use xlink:href="#DejaVuSans-37" x="99.707031"/>
      </g>
      <!-- $E_{\mathrm{K}}$ -->
      <g transform="translate(77.364691 270.99625) scale(0.1 -0.1)">
       <defs>
        <path id="DejaVuSans-Oblique-45" d="M 1081 4666 
L 4031 4666 
L 3928 4134 
L 1606 4134 
L 1338 2753 
L 3566 2753 
L 3463 2222 
L 1234 2222 
L 909 531 
L 3284 531 
L 3181 0 
L 172 0 
L 1081 4666 
z
" transform="scale(0.015625)"/>
       </defs>
       <use xlink:href="#DejaVuSans-Oblique-45" transform="translate(0 0.09375)"/>
       <use xlink:href="#DejaVuSans-4b" transform="translate(63.183594 -16.3125) scale(0.7)"/>
      </g>
     </g>
    </g>
    <g id="xtick_3">
     <g id="line2d_27">
      <g>
       <use xlink:href="#m7ce2f29eb0" x="101.376704" y="245.2" style="stroke: #000000; stroke-width: 0.8"/>
      </g>
     </g>
     <g id="text_10">
      <!-- -65 -->
      <g transform="translate(93.210298 259.798438) scale(0.1 -0.1)">
       <defs>
        <path id="DejaVuSans-36" d="M 2113 2584 
Q 1688 2584 1439 2293 
Q 1191 2003 1191 1497 
Q 1191 994 1439 701 
Q 1688 409 2113 409 
Q 2538 409 2786 701 
Q 3034 994 3034 1497 
Q 3034 2003 2786 2293 
Q 2538 2584 2113 2584 
z
M 3366 4563 
L 3366 3988 
Q 3128 4100 2886 4159 
Q 2644 4219 2406 4219 
Q 1781 4219 1451 3797 
Q 1122 3375 1075 2522 
Q 1259 2794 1537 2939 
Q 1816 3084 2150 3084 
Q 2853 3084 3261 2657 
Q 3669 2231 3669 1497 
Q 3669 778 3244 343 
Q 2819 -91 2113 -91 
Q 1303 -91 875 529 
Q 447 1150 447 2328 
Q 447 3434 972 4092 
Q 1497 4750 2381 4750 
Q 2619 4750 2861 4703 
Q 3103 4656 3366 4563 
z
" transform="scale(0.015625)"/>
        <path id="DejaVuSans-35" d="M 691 4666 
L 3169 4666 
L 3169 4134 
L 1269 4134 
L 1269 2991 
Q 1406 3038 1543 3061 
Q 1681 3084 1819 3084 
Q 2600 3084 3056 2656 
Q 3513 2228 3513 1497 
Q 3513 744 3044 326 
Q 2575 -91 1722 -91 
Q 1428 -91 1123 -41 
Q 819 9 494 109 
L 494 744 
Q 775 591 1075 516 
Q 1375 441 1709 441 
Q 2250 441 2565 725 
Q 2881 1009 2881 1497 
Q 2881 1984 2565 2268 
Q 2250 2553 1709 2553 
Q 1456 2553 1204 2497 
Q 953 2441 691 2322 
L 691 4666 
z
" transform="scale(0.015625)"/>
       </defs>
       <use xlink:href="#DejaVuSans-2d"/>
       <use xlink:href="#DejaVuSans-36" x="36.083984"/>
       <use xlink:href="#DejaVuSans-35" x="99.707031"/>
      </g>
      <!-- $E_{\ell}$ -->
      <g transform="translate(96.626704 270.99625) scale(0.1 -0.1)">
       <defs>
        <path id="DejaVuSans-Oblique-2113" d="M 950 838 
Q 1078 213 1350 213 
Q 1531 213 1766 572 
L 2181 572 
Q 1994 253 1775 88 
Q 1538 -91 1319 -91 
Q 831 -91 634 344 
L 400 0 
L -88 0 
Q 250 459 500 888 
Q 469 1131 469 1397 
Q 469 1872 566 2347 
Q 931 4131 1256 4497 
Q 1481 4750 1866 4750 
Q 2256 4750 2256 4209 
Q 2253 3966 2197 3675 
Q 1972 2484 950 838 
z
M 947 1656 
Q 1531 2744 1709 3613 
Q 1803 4072 1803 4191 
Q 1803 4406 1725 4406 
Q 1384 4134 1081 2516 
Q 997 2063 947 1656 
z
" transform="scale(0.015625)"/>
       </defs>
       <use xlink:href="#DejaVuSans-Oblique-45" transform="translate(0 0.09375)"/>
       <use xlink:href="#DejaVuSans-Oblique-2113" transform="translate(63.183594 -16.3125) scale(0.7)"/>
      </g>
     </g>
    </g>
    <g id="xtick_4">
     <g id="line2d_28">
      <g>
       <use xlink:href="#m7ce2f29eb0" x="201.108441" y="245.2" style="stroke: #000000; stroke-width: 0.8"/>
      </g>
     </g>
     <g id="text_11">
      <!-- 0 -->
      <g transform="translate(197.927191 259.798438) scale(0.1 -0.1)">
       <use xlink:href="#DejaVuSans-30"/>
      </g>
     </g>
    </g>
    <g id="xtick_5">
     <g id="line2d_29">
      <g>
       <use xlink:href="#m7ce2f29eb0" x="285.496833" y="245.2" style="stroke: #000000; stroke-width: 0.8"/>
      </g>
     </g>
     <g id="text_12">
      <!-- 55 -->
      <g transform="translate(279.134333 259.798438) scale(0.1 -0.1)">
       <use xlink:href="#DejaVuSans-35"/>
       <use xlink:href="#DejaVuSans-35" x="63.623047"/>
      </g>
      <!-- $E_{\mathrm{Na}}$ -->
      <g transform="translate(277.396833 270.99625) scale(0.1 -0.1)">
       <use xlink:href="#DejaVuSans-Oblique-45" transform="translate(0 0.09375)"/>
       <use xlink:href="#DejaVuSans-4e" transform="translate(63.183594 -16.3125) scale(0.7)"/>
       <use xlink:href="#DejaVuSans-61" transform="translate(115.546875 -16.3125) scale(0.7)"/>
      </g>
     </g>
    </g>
    <g id="text_13">
     <!-- Voltage (mV) -->
     <g transform="translate(134.048417 284.674375) scale(0.1 -0.1)">
      <use xlink:href="#DejaVuSans-56"/>
      <use xlink:href="#DejaVuSans-6f" x="60.658203"/>
      <use xlink:href="#DejaVuSans-6c" x="121.839844"/>
      <use xlink:href="#DejaVuSans-74" x="149.623047"/>
      <use xlink:href="#DejaVuSans-61" x="188.832031"/>
      <use xlink:href="#DejaVuSans-67" x="250.111328"/>
      <use xlink:href="#DejaVuSans-65" x="313.587891"/>
      <use xlink:href="#DejaVuSans-20" x="375.111328"/>
      <use xlink:href="#DejaVuSans-28" x="406.898438"/>
      <use xlink:href="#DejaVuSans-6d" x="445.912109"/>
      <use xlink:href="#DejaVuSans-56" x="543.324219"/>
      <use xlink:href="#DejaVuSans-29" x="611.732422"/>
     </g>
    </g>
   </g>
   <g id="matplotlib.axis_4">
    <g id="ytick_3">
     <g id="line2d_30">
      <g>
       <use xlink:href="#m59bffc2d62" x="47.675" y="245.2" style="stroke: #000000; stroke-width: 0.8"/>
      </g>
     </g>
     <g id="text_14">
      <!-- 0 -->
      <g transform="translate(34.3125 248.999219) scale(0.1 -0.1)">
       <use xlink:href="#DejaVuSans-30"/>
      </g>
     </g>
    </g>
    <g id="ytick_4">
     <g id="line2d_31">
      <g>
       <use xlink:href="#m59bffc2d62" x="47.675" y="146.3" style="stroke: #000000; stroke-width: 0.8"/>
      </g>
     </g>
     <g id="text_15">
      <!-- 1 -->
      <g transform="translate(34.3125 150.099219) scale(0.1 -0.1)">
       <use xlink:href="#DejaVuSans-31"/>
      </g>
     </g>
    </g>
    <g id="text_16">
     <!-- Fraction of Channels $p_\infty$ -->
     <g transform="translate(21.85 255.05) rotate(-90) scale(0.1 -0.1)">
      <defs>
       <path id="DejaVuSans-46" d="M 628 4666 
L 3309 4666 
L 3309 4134 
L 1259 4134 
L 1259 2759 
L 3109 2759 
L 3109 2228 
L 1259 2228 
L 1259 0 
L 628 0 
L 628 4666 
z
" transform="scale(0.015625)"/>
       <path id="DejaVuSans-66" d="M 2375 4863 
L 2375 4384 
L 1825 4384 
Q 1516 4384 1395 4259 
Q 1275 4134 1275 3809 
L 1275 3500 
L 2222 3500 
L 2222 3053 
L 1275 3053 
L 1275 0 
L 697 0 
L 697 3053 
L 147 3053 
L 147 3500 
L 697 3500 
L 697 3744 
Q 697 4328 969 4595 
Q 1241 4863 1831 4863 
L 2375 4863 
z
" transform="scale(0.015625)"/>
       <path id="DejaVuSans-68" d="M 3513 2113 
L 3513 0 
L 2938 0 
L 2938 2094 
Q 2938 2591 2744 2837 
Q 2550 3084 2163 3084 
Q 1697 3084 1428 2787 
Q 1159 2491 1159 1978 
L 1159 0 
L 581 0 
L 581 4863 
L 1159 4863 
L 1159 2956 
Q 1366 3272 1645 3428 
Q 1925 3584 2291 3584 
Q 2894 3584 3203 3211 
Q 3513 2838 3513 2113 
z
" transform="scale(0.015625)"/>
       <path id="DejaVuSans-Oblique-70" d="M 3175 2156 
Q 3175 2616 2975 2859 
Q 2775 3103 2400 3103 
Q 2144 3103 1911 2972 
Q 1678 2841 1497 2591 
Q 1319 2344 1212 1994 
Q 1106 1644 1106 1300 
Q 1106 863 1306 627 
Q 1506 391 1875 391 
Q 2147 391 2380 519 
Q 2613 647 2778 891 
Q 2956 1147 3065 1494 
Q 3175 1841 3175 2156 
z
M 1394 2969 
Q 1625 3272 1939 3428 
Q 2253 3584 2638 3584 
Q 3175 3584 3472 3232 
Q 3769 2881 3769 2247 
Q 3769 1728 3584 1258 
Q 3400 788 3053 416 
Q 2822 169 2531 39 
Q 2241 -91 1919 -91 
Q 1547 -91 1294 64 
Q 1041 219 916 525 
L 556 -1331 
L -19 -1331 
L 922 3500 
L 1497 3500 
L 1394 2969 
z
" transform="scale(0.015625)"/>
       <path id="DejaVuSans-221e" d="M 2916 1091 
Q 2819 1203 2666 1466 
Q 2456 1091 2272 925 
Q 2041 725 1681 725 
Q 1259 725 981 1041 
Q 688 1372 688 1919 
Q 688 2444 981 2800 
Q 1244 3116 1688 3116 
Q 1916 3116 2084 3022 
Q 2281 2919 2416 2741 
Q 2541 2581 2666 2366 
Q 2875 2741 3059 2906 
Q 3291 3106 3650 3106 
Q 4072 3106 4350 2791 
Q 4644 2459 4644 1913 
Q 4644 1388 4350 1031 
Q 4088 716 3644 716 
Q 3416 716 3247 809 
Q 3078 894 2916 1091 
z
M 1647 1134 
Q 2163 1134 2472 1884 
Q 2075 2703 1647 2703 
Q 1334 2703 1175 2478 
Q 1003 2238 1003 1919 
Q 1003 1569 1175 1353 
Q 1350 1134 1647 1134 
z
M 3684 2697 
Q 3219 2697 2859 1947 
Q 3253 1128 3684 1128 
Q 3997 1128 4156 1353 
Q 4328 1594 4328 1913 
Q 4328 2263 4156 2478 
Q 3981 2697 3684 2697 
z
" transform="scale(0.015625)"/>
      </defs>
      <use xlink:href="#DejaVuSans-46" transform="translate(0 0.015625)"/>
      <use xlink:href="#DejaVuSans-72" transform="translate(57.519531 0.015625)"/>
      <use xlink:href="#DejaVuSans-61" transform="translate(98.632812 0.015625)"/>
      <use xlink:href="#DejaVuSans-63" transform="translate(159.912109 0.015625)"/>
      <use xlink:href="#DejaVuSans-74" transform="translate(214.892578 0.015625)"/>
      <use xlink:href="#DejaVuSans-69" transform="translate(254.101562 0.015625)"/>
      <use xlink:href="#DejaVuSans-6f" transform="translate(281.884766 0.015625)"/>
      <use xlink:href="#DejaVuSans-6e" transform="translate(343.066406 0.015625)"/>
      <use xlink:href="#DejaVuSans-20" transform="translate(406.445312 0.015625)"/>
      <use xlink:href="#DejaVuSans-6f" transform="translate(438.232422 0.015625)"/>
      <use xlink:href="#DejaVuSans-66" transform="translate(499.414062 0.015625)"/>
      <use xlink:href="#DejaVuSans-20" transform="translate(534.619141 0.015625)"/>
      <use xlink:href="#DejaVuSans-43" transform="translate(566.40625 0.015625)"/>
      <use xlink:href="#DejaVuSans-68" transform="translate(636.230469 0.015625)"/>
      <use xlink:href="#DejaVuSans-61" transform="translate(699.609375 0.015625)"/>
      <use xlink:href="#DejaVuSans-6e" transform="translate(760.888672 0.015625)"/>
      <use xlink:href="#DejaVuSans-6e" transform="translate(824.267578 0.015625)"/>
      <use xlink:href="#DejaVuSans-65" transform="translate(887.646484 0.015625)"/>
      <use xlink:href="#DejaVuSans-6c" transform="translate(949.169922 0.015625)"/>
      <use xlink:href="#DejaVuSans-73" transform="translate(976.953125 0.015625)"/>
      <use xlink:href="#DejaVuSans-20" transform="translate(1029.052734 0.015625)"/>
      <use xlink:href="#DejaVuSans-Oblique-70" transform="translate(1060.839844 0.015625)"/>
      <use xlink:href="#DejaVuSans-221e" transform="translate(1124.316406 -16.390625) scale(0.7)"/>
     </g>
    </g>
   </g>
   <g id="line2d_32">
    <path d="M 47.675 146.475345 
L 56.236586 146.743208 
L 61.94431 147.120733 
L 66.225103 147.600231 
L 70.030252 148.252613 
L 72.884114 148.943275 
L 75.737976 149.869239 
L 78.116195 150.872701 
L 80.494413 152.140991 
L 82.396988 153.385849 
L 84.299562 154.87158 
L 86.202137 156.633771 
L 88.104712 158.708476 
L 90.007286 161.12997 
L 91.909861 163.927706 
L 93.812436 167.122518 
L 95.71501 170.722357 
L 98.093229 175.775785 
L 100.471447 181.382312 
L 103.800953 189.925577 
L 111.886895 211.092368 
L 114.265113 216.612906 
L 116.643332 221.565841 
L 118.545906 225.080884 
L 120.448481 228.191284 
L 122.351056 230.908054 
L 124.25363 233.254181 
L 126.156205 235.260419 
L 128.05878 236.961642 
L 129.961354 238.393967 
L 131.863929 239.592669 
L 134.242147 240.812615 
L 136.620366 241.776885 
L 139.474228 242.665948 
L 142.32809 243.328626 
L 145.657595 243.889033 
L 149.938388 244.372456 
L 155.170469 244.729516 
L 162.305124 244.982689 
L 173.720572 245.137015 
L 198.929686 245.195924 
L 285.496833 245.19997 
L 285.496833 245.19997 
" style="fill: none; stroke: #44525c; stroke-width: 1.5"/>
   </g>
   <g id="line2d_33">
    <path d="M 47.675 245.199081 
L 114.265113 245.085951 
L 129.961354 244.845447 
L 139.474228 244.496408 
L 146.608883 244.026126 
L 152.316607 243.435996 
L 157.073043 242.728753 
L 161.353836 241.860962 
L 165.158986 240.848224 
L 168.488491 239.727318 
L 171.342353 238.55535 
L 174.196215 237.154021 
L 177.050077 235.488268 
L 179.903939 233.521983 
L 182.282158 231.628377 
L 184.660376 229.483049 
L 187.038594 227.070651 
L 189.416813 224.380649 
L 192.270675 220.781187 
L 195.124537 216.785876 
L 197.978399 212.424529 
L 201.307904 206.944656 
L 206.064341 198.622374 
L 214.625927 183.552904 
L 217.955433 178.141232 
L 221.284938 173.173011 
L 224.1388 169.323615 
L 226.992662 165.875759 
L 229.846524 162.831734 
L 232.224743 160.594302 
L 234.602961 158.614414 
L 237.456823 156.553573 
L 240.310685 154.803745 
L 243.164547 153.328857 
L 246.018409 152.093379 
L 249.347915 150.910029 
L 252.67742 149.95889 
L 256.48257 149.10262 
L 260.763363 148.371218 
L 265.995443 147.727429 
L 272.178811 147.216971 
L 279.789109 146.830543 
L 285.496833 146.651562 
L 285.496833 146.651562 
" style="fill: none; stroke: #eb7a59; stroke-width: 1.5"/>
   </g>
   <g id="line2d_34">
    <path d="M 47.675 245.094121 
L 63.846885 244.859291 
L 73.835402 244.500258 
L 80.970057 244.032519 
L 86.677781 243.445546 
L 91.434217 242.742035 
L 95.71501 241.878747 
L 99.52016 240.871159 
L 102.849665 239.755819 
L 105.703527 238.589523 
L 108.557389 237.194776 
L 111.411251 235.536564 
L 114.265113 233.578783 
L 116.643332 231.69296 
L 119.02155 229.55597 
L 121.399768 227.152336 
L 123.777987 224.471343 
L 126.631849 220.882678 
L 129.485711 216.897663 
L 132.339573 212.545525 
L 135.669078 207.074217 
L 140.425515 198.758537 
L 148.987101 183.681324 
L 152.316607 178.260668 
L 155.646112 173.28131 
L 158.499974 169.42138 
L 161.353836 165.962678 
L 164.207698 162.907967 
L 166.585917 160.662016 
L 168.964135 158.674121 
L 171.817997 156.604477 
L 174.671859 154.846799 
L 177.525721 153.365028 
L 180.379583 152.123595 
L 183.709089 150.93438 
L 187.038594 149.978413 
L 190.843744 149.11771 
L 195.124537 148.382455 
L 199.880973 147.784766 
L 205.588697 147.287104 
L 212.723352 146.891194 
L 222.236226 146.597744 
L 236.505536 146.406149 
L 263.141581 146.315439 
L 285.496833 146.303059 
L 285.496833 146.303059 
" style="fill: none; stroke: #00bac9; stroke-width: 1.5"/>
   </g>
   <g id="patch_6">
    <path d="M 47.675 245.2 
L 47.675 146.3 
" style="fill: none; stroke: #000000; stroke-width: 0.8; stroke-linejoin: miter; stroke-linecap: square"/>
   </g>
  </g>
 </g>
 <defs>
  <clipPath id="p7a672c3067">
   <rect x="47.675" y="25.8" width="237.821833" height="98.9"/>
  </clipPath>
  <clipPath id="p83c59f8e7e">
   <rect x="47.675" y="146.3" width="237.821833" height="98.9"/>
  </clipPath>
 </defs>
</svg>
